<svg xmlns="http://www.w3.org/2000/svg" width="2000" height="2000" viewBox="0 0 2000 2000"><defs><linearGradient gradientUnits="userSpaceOnUse" x1="1000" y1="29" x2="1000" y2="1971" id="a"><stop offset="0" style="stop-color:rgb(14.118% 14.118% 14.118%)"/><stop offset="1" style="stop-color:rgb(9.6199% 9.6199% 9.6199%)"/></linearGradient></defs><circle cx="1000" cy="1000" r="971" style="stroke-width:50px;stroke:#7b39ec;paint-order:fill;fill:url(#a)"/><path d="m1003.563 435.813 3.384-.038c23.563-.04 44.146 8.937 61.053 25.225 21.533 21.934 24.288 49.31 26.734 78.488l.48 5.636q.64 7.53 1.273 15.061.398 4.728.799 9.455 3.725 43.972 7.203 87.966a8631 8631 0 0 0 5.448 65.644c2.286 26.347 4.453 52.701 6.563 79.063l2.023 25.262c1.374 17.164 2.757 34.327 4.165 51.487l.169 2.067c1.95 23.79 3.96 47.575 5.975 71.36l2.363 27.89.201 2.37 1.006 11.873c3.247 38.293 6.469 76.586 9.487 114.897q.411 5.233.826 10.465l.16 2.022c1.331 16.803 2.791 33.596 4.249 50.389 2.31 26.626 4.474 53.263 6.6 79.904a11281 11281 0 0 0 6.522 78.56c2.308 26.587 4.471 53.184 6.568 79.789l1.06 13.417c.767 9.72 1.584 19.433 2.544 29.135.668 6.947.796 13.82.582 20.8h2l.148-2.535c.697-10.843 1.927-21.55 3.886-32.24 1.662-9.075 3.003-18.175 4.229-27.318q.514-3.829 1.036-7.655 1.106-8.125 2.201-16.252 1.274-9.438 2.558-18.874.505-3.72 1.002-7.439c1.101-8.135 2.355-16.216 3.823-24.292 1.341-7.467 2.372-14.97 3.38-22.488q.514-3.829 1.036-7.655 1.106-8.125 2.201-16.252 1.274-9.438 2.558-18.874.505-3.72 1.002-7.439c1.106-8.169 2.364-16.285 3.837-24.396 1.26-7.003 2.241-14.035 3.18-21.088q.464-3.475.936-6.95A12150 12150 0 0 0 1212 1197.5q1.15-8.57 2.31-17.14.455-3.37.902-6.74c.948-7.038 2.005-14.037 3.274-21.024 1.489-8.202 2.67-16.429 3.777-24.69q.514-3.828 1.036-7.654 1.106-8.125 2.201-16.252 1.274-9.438 2.558-18.874.505-3.72 1.002-7.439c1.106-8.169 2.364-16.285 3.837-24.396 1.26-7.003 2.241-14.035 3.18-21.088q.464-3.475.936-6.95A12150 12150 0 0 0 1239 1010.5q1.15-8.57 2.31-17.14.455-3.37.902-6.74c.948-7.038 2.005-14.037 3.274-21.024 1.489-8.202 2.67-16.429 3.777-24.69q.514-3.828 1.036-7.654 1.106-8.125 2.201-16.252 1.274-9.438 2.558-18.874.505-3.72 1.002-7.439c1.14-8.417 2.417-16.788 3.957-25.142.897-4.887 1.472-9.722 1.858-14.67 1.628-16.716 8.398-31.017 19.125-43.875l2.32-2.926c10.201-12.184 26.417-21.194 41.68-25.074l3.055-.836c22.84-5.645 46.817-1.13 67.136 10.45 14.183 8.571 24.711 20.826 32.246 35.448l.965 1.855c6.013 12.39 7.546 27.317 10.239 40.704l1.349 6.678q1.414 7.003 2.824 14.007 1.772 8.802 3.553 17.601c4.563 22.565 9.071 45.135 13.304 67.764 2.636 14.079 5.516 28.104 8.441 42.125q.977 4.696 1.947 9.395l.596 2.834.538 2.61.474 2.273C1472 1034 1472 1034 1472 1038l2.223-.014q26.857-.166 53.717-.245c8.66-.026 17.318-.06 25.978-.118q11.33-.076 22.66-.093c3.995-.007 7.989-.022 11.983-.059q5.656-.05 11.314-.037a473 473 0 0 0 6.057-.056c13.795.076 25.958 3.713 35.959 13.466 4.32 4.575 6.972 9.262 9.109 15.156l1.09 2.719c1.147 4.134 1.203 7.89 1.16 12.156l.023 2.316c-.026 7.674-1.634 14.105-5.148 20.996l-1.492 2.981c-2.714 4.707-5.72 8.225-10.133 11.395l-2.281 1.69c-9.982 5.416-19.68 6.332-30.815 6.265q-2.297.008-4.593.02c-4.124.019-8.248.012-12.373 0-4.343-.01-8.685-.001-13.028.005q-10.943.01-21.886-.022c-8.393-.021-16.784-.014-25.177.008q-10.864.026-21.728.01c-4.31-.006-8.618-.007-12.927.006q-6.09.016-12.177-.02a466 466 0 0 0-4.425.006c-13.706.075-27.531-1.978-39.902-8.218l-2.118-1.038c-20.997-10.648-36.513-29.018-44.069-51.209-2.343-7.477-4.13-14.907-5.552-22.609l-.665-3.5q-.698-3.676-1.387-7.354c-1.202-6.421-2.428-12.838-3.65-19.255l-.726-3.813a1566 1566 0 0 0-5.771-28.785c-2.502-11.94-4.814-23.907-7.049-35.9-2.87-15.383-5.996-30.71-9.181-46.031l-1.102-5.323-.526-2.54a315 315 0 0 1-3.004-16.952c-.192-1.995-.192-1.995-1.388-3.004-2.126 14.057-4.223 28.112-5.96 42.223-.557 4.434-1.208 8.822-2.032 13.215-1.06 5.663-1.806 11.344-2.508 17.062-.814 6.627-1.782 13.175-3.014 19.736-.832 4.732-1.4 9.496-1.986 14.264-.823 6.699-1.8 13.321-3.045 19.955-.627 3.506-1.049 7.006-1.455 10.545-.513 4.47-1.139 8.859-1.969 13.281-1.064 5.717-1.822 11.449-2.531 17.219-.814 6.627-1.782 13.175-3.014 19.736-.832 4.732-1.4 9.496-1.986 14.264-.815 6.637-1.785 13.195-3.018 19.767-.807 4.577-1.354 9.184-1.92 13.795a512 512 0 0 1-3.505 23.565c-1.05 6.124-1.83 12.259-2.53 18.432a176 176 0 0 1-1.492 9.195c-1.065 5.726-1.825 11.467-2.535 17.246-.823 6.699-1.8 13.321-3.045 19.955-.627 3.506-1.049 7.006-1.455 10.545-.513 4.47-1.139 8.859-1.969 13.281-1.064 5.717-1.822 11.449-2.531 17.219-.814 6.627-1.782 13.175-3.014 19.736-.832 4.732-1.4 9.496-1.986 14.264-.814 6.627-1.782 13.175-3.014 19.736-.832 4.732-1.4 9.496-1.986 14.264-.815 6.637-1.785 13.195-3.018 19.767-.807 4.577-1.354 9.184-1.92 13.795a512 512 0 0 1-3.505 23.565c-1.05 6.124-1.83 12.259-2.53 18.432a176 176 0 0 1-1.492 9.195c-1.065 5.726-1.825 11.467-2.535 17.246-.823 6.699-1.8 13.321-3.045 19.955-.627 3.506-1.049 7.006-1.455 10.545-.515 4.484-1.144 8.885-1.977 13.32-1.023 5.498-1.73 11.005-2.398 16.555-3.933 30.58-11.04 57.344-35.21 78.375-19.274 14.816-42.293 21.028-66.415 18.75-23.587-3.128-44.853-15.754-59.325-34.58-9.361-12.878-14.678-27.937-16.175-43.662l-.371-3.682c-1.44-14.627-2.576-29.28-3.718-43.932-.74-9.489-1.496-18.977-2.255-28.464l-.249-3.121a11470 11470 0 0 0-4.563-55.114l-.175-2.055-2.308-27.15q-1.621-19.041-3.236-38.084l-.176-2.074c-2.12-25.019-4.161-50.043-6.147-75.072-2.824-35.598-5.839-71.179-8.864-106.76q-1.43-16.809-2.856-33.617l-.173-2.044c-1.99-23.483-3.925-46.97-5.784-70.464l-.178-2.25-1.359-17.18c-1.12-14.172-2.28-28.34-3.463-42.508l-.296-3.55c-1.29-15.446-2.605-30.89-3.927-46.334l-2.538-29.672q-3.824-44.712-7.38-89.447c-3.48-43.75-7.202-87.477-10.92-131.206l-1.671-19.669-.324-3.822-.637-7.512a19888 19888 0 0 0-1.855-21.729q-.574-6.7-1.142-13.4a4140 4140 0 0 0-.53-6.163q-.363-4.203-.717-8.406l-.214-2.422c-.467-5.628-.547-11.21-.474-16.855h-2l-.122 2.919c-.537 11.321-1.794 22.494-3.232 33.732-.689 5.39-1.359 10.781-2.029 16.173l-.414 3.33c-1.377 11.126-2.613 22.265-3.828 33.409-1.503 13.759-3.101 27.496-4.86 41.225-1.421 11.203-2.663 22.423-3.89 33.65a3220 3220 0 0 1-5.563 47.5c-2.18 17.527-4.203 35.067-6.125 52.625-1.782 16.287-3.657 32.554-5.74 48.805-2.024 15.825-3.778 31.676-5.514 47.535a3608 3608 0 0 1-6.123 52.195c-1.959 15.761-3.772 31.533-5.497 47.321a2090 2090 0 0 1-4.548 38.369c-1.421 11.203-2.663 22.423-3.89 33.65a3222 3222 0 0 1-5.563 47.5 3486 3486 0 0 0-6 51.562c-2.355 21.559-4.922 43.086-7.614 64.605l-.835 6.688-.411 3.276a854 854 0 0 0-1.97 17.219l-.383 3.65a938 938 0 0 0-.687 6.86c-2.367 22.77-12 43.01-28.162 59.202l-1.852 1.887c-9.161 8.674-21.271 14.266-33.148 18.113l-2.965.969c-22.765 6.328-47.695 1.322-67.93-10.016-5.1-3.208-9.621-6.94-14.105-10.953l-1.887-1.602c-16.608-15.098-23.021-37.81-26.234-59.203l-.564-3.635q-.883-5.717-1.753-11.435a7528 7528 0 0 0-2.308-14.992l-.572-3.699a542 542 0 0 0-3.78-21.38 308 308 0 0 1-3.316-20.34c-1.18-9.102-2.595-18.157-4.11-27.21l-.346-2.073q-1.067-6.366-2.144-12.73-1.427-8.452-2.844-16.906l-.707-4.21a5304 5304 0 0 1-6.251-38.223q-1.663-10.351-3.36-20.698l-.528-3.229-1.609-9.81-2.335-14.254-.59-3.6a17616 17616 0 0 1-4.051-24.86l-1.629-10.02-1.026-6.339q-.711-4.395-1.427-8.79l-.412-2.563c-.668-4.089-1.4-8.151-2.238-12.21-.984-4.84-1.652-9.687-2.268-14.587-1.227-9.33-2.682-18.617-4.234-27.898l-.347-2.07q-1.066-6.368-2.144-12.733-1.426-8.452-2.844-16.906l-.707-4.212c-2.34-13.934-4.594-27.881-6.832-41.832a11936 11936 0 0 0-4.716-29.039l-1.166-7.162q-.864-5.316-1.733-10.632l-.517-3.195c-.761-4.644-1.564-9.266-2.516-13.876-.97-4.753-1.621-9.512-2.225-14.324-1.96-14.936-4.53-29.776-7.035-44.629q-.968-5.753-1.931-11.507Q651.887 704.193 650 693a3692 3692 0 0 0-9.657 83.348 5416 5416 0 0 1-6.968 63.277c-2.225 19.142-4.344 38.289-6.302 57.46a2745 2745 0 0 1-4.887 44.063 2439 2439 0 0 0-4.316 39.41c-1.747 17.083-3.539 34.162-5.497 51.222q-.367 3.232-.718 6.466c-2.974 27.365-11.655 50.75-33.233 68.922-18.715 14.157-38.767 19.33-61.925 19.22a2021 2021 0 0 1-16.248.015c-4.155-.008-8.31 0-12.465.004q-10.45.007-20.9-.016a5889 5889 0 0 0-24.087.006q-10.395.02-20.789.007a3486 3486 0 0 0-12.37.005q-5.81.012-11.62-.015a565 565 0 0 0-4.238.004c-13.626.058-25.769-1.927-36.042-11.507-9.768-10.473-13.189-22.438-13.011-36.645.92-10.935 5.506-21.676 13.445-29.344 11.785-9.57 22.906-11.212 37.793-11.13a2892 2892 0 0 1 15.42.024c3.927.014 7.855.015 11.783.017q11.14.011 22.28.043c8.459.022 16.918.033 25.378.043q26.087.033 52.174.101l.29-3.474c1.552-18.001 3.582-35.948 5.585-53.903q.769-6.903 1.534-13.807 1.29-11.613 2.585-23.228 1.476-13.241 2.944-26.484 1.436-12.927 2.874-25.853l1.202-10.814a6850 6850 0 0 1 6.878-59.726 4446 4446 0 0 0 5.138-44.873 10996 10996 0 0 1 1.775-16.084l.232-2.097a23968 23968 0 0 0 3.03-27.502q1.035-9.46 2.088-18.917.55-4.945 1.088-9.892c3.482-32.017 9.537-58.818 34.562-80.81C605.693 611.903 618.239 605.368 632 603l3.148-.55c26.238-3.061 50.397 2.365 71.477 18.737 24.412 20.795 29.321 48.247 33.99 78.427.985 6.366 1.985 12.73 2.983 19.093l.611 3.908a5706 5706 0 0 0 5.916 36.885l.497 3.043a5494 5494 0 0 0 7.37 43.831c4.385 25.514 8.596 51.06 12.446 76.662 1.86 12.188 3.991 24.333 6.101 36.48 1.236 7.136 2.462 14.263 3.453 21.437 1.276 9.22 2.915 18.378 4.508 27.547 1.782 10.26 3.534 20.506 4.959 30.822 1.19 8.084 2.643 16.128 4.041 24.178 1.782 10.26 3.534 20.506 4.959 30.822 1.19 8.084 2.643 16.128 4.041 24.178 1.782 10.26 3.534 20.506 4.959 30.822 1.19 8.084 2.643 16.128 4.041 24.178 1.782 10.26 3.534 20.506 4.959 30.822 1.19 8.084 2.643 16.128 4.041 24.178 1.8 10.364 3.573 20.714 5.013 31.136.908 6.268 2.02 12.501 3.112 18.739l.695 4q.837 4.813 1.68 9.625c1.158-2.316 1.294-4.018 1.543-6.598l.307-3.043.337-3.421c1.42-13.836 3.1-27.636 4.813-41.438 2.386-19.234 2.386-19.234 4.5-38.5 1.264-12.314 2.787-24.591 4.313-36.875 2.22-17.882 4.29-35.775 6.25-53.688 1.823-16.666 3.748-33.311 5.874-49.941 1.586-12.414 2.995-24.837 4.303-37.282 1.363-12.938 2.937-25.84 4.583-38.745A1651 1651 0 0 0 872 906.5c1.44-13.7 3.08-27.366 4.823-41.03A1651 1651 0 0 0 881 829.5c1.44-13.7 3.08-27.366 4.823-41.03A1651 1651 0 0 0 890 752.5c1.44-13.7 3.08-27.366 4.823-41.03A1651 1651 0 0 0 899 675.5c1.44-13.7 3.08-27.366 4.823-41.03A1654 1654 0 0 0 908 598.5c1.816-17.262 3.952-34.477 6.142-51.695.888-6.993 1.721-13.992 2.545-20.992q.649-5.408 1.313-10.813l.252-2.09c2.672-21.683 12.92-42.647 29.748-56.91 16.804-12.89 34.303-20.176 55.563-20.188Z" style="fill:#7b39ec"/></svg>